HIERARCHY
ROOT Hips
{
  OFFSET 13.6774 106.653 -34.4427
  CHANNELS 6 Xposition Yposition Zposition Zrotation Xrotation Yrotation
  JOINT ToSpine
  {
    OFFSET -2.69724 7.43032 -0.144315
    CHANNELS 3 Zrotation Xrotation Yrotation
    JOINT Spine
    {
      OFFSET -0.0310711 10.7595 1.96963
      CHANNELS 3 Zrotation Xrotation Yrotation
      JOINT Spine1
      {
        OFFSET 19.9056 3.91189 0.764692
        CHANNELS 3 Zrotation Xrotation Yrotation
        JOINT Neck
        {
          OFFSET 25.9749 7.03908 -0.130764
          CHANNELS 3 Zrotation Xrotation Yrotation
          JOINT Head
          {
            OFFSET 9.52751 0.295786 -0.907742
            CHANNELS 3 Zrotation Xrotation Yrotation
            End Site
            {
              OFFSET 16.4037 0.713936 2.7358
            }
          }
        }
        JOINT LeftShoulder
        {
          OFFSET 17.7449 4.33886 11.7777
          CHANNELS 3 Zrotation Xrotation Yrotation
          JOINT LeftArm
          {
            OFFSET 0.911315 1.27913 9.80584
            CHANNELS 3 Zrotation Xrotation Yrotation
            JOINT LeftForeArm
            {
              OFFSET 28.6126 1.18197 -3.53199
              CHANNELS 3 Zrotation Xrotation Yrotation
              JOINT LeftHand
              {
                OFFSET 27.5088 0.0218783 0.327423
                CHANNELS 3 Zrotation Xrotation Yrotation
                End Site
                {
                  OFFSET 18.6038 -0.000155887 0.382096
                }
              }
            }
          }
        }
        JOINT RightShoulder
        {
          OFFSET 17.1009 2.89543 -12.2328
          CHANNELS 3 Zrotation Xrotation Yrotation
          JOINT RightArm
          {
            OFFSET 1.4228 0.178766 -10.211
            CHANNELS 3 Zrotation Xrotation Yrotation
            JOINT RightForeArm
            {
              OFFSET 28.733 1.87905 2.64907
              CHANNELS 3 Zrotation Xrotation Yrotation
              JOINT RightHand
              {
                OFFSET 27.4588 0.290562 -0.101845
                CHANNELS 3 Zrotation Xrotation Yrotation
                End Site
                {
                  OFFSET 17.8396 -0.255518 -0.000602873
                }
              }
            }
          }
        }
      }
    }
  }
  JOINT LeftUpLeg
  {
    OFFSET -5.61296 -2.22332 -10.2353
    CHANNELS 3 Zrotation Xrotation Yrotation
    JOINT LeftLeg
    {
      OFFSET 2.56703 -44.7417 -7.93097
      CHANNELS 3 Zrotation Xrotation Yrotation
      JOINT LeftFoot
      {
        OFFSET 3.16933 -46.5642 -3.96578
        CHANNELS 3 Zrotation Xrotation Yrotation
        JOINT LeftToeBase
        {
          OFFSET 0.346054 -6.02161 12.8035
          CHANNELS 3 Zrotation Xrotation Yrotation
          End Site
          {
            OFFSET 0.134235 -1.35082 5.13018
          }
        }
      }
    }
  }
  JOINT RightUpLeg
  {
    OFFSET -5.7928 -1.72406 10.6446
    CHANNELS 3 Zrotation Xrotation Yrotation
    JOINT RightLeg
    {
      OFFSET -2.57161 -44.7178 -7.85259
      CHANNELS 3 Zrotation Xrotation Yrotation
      JOINT RightFoot
      {
        OFFSET -3.10148 -46.5936 -4.03391
        CHANNELS 3 Zrotation Xrotation Yrotation
        JOINT RightToeBase
        {
          OFFSET -0.0828122 -6.13587 12.8035
          CHANNELS 3 Zrotation Xrotation Yrotation
          End Site
          {
            OFFSET -0.131328 -1.35082 5.13018
          }
        }
      }
    }
  }
}
MOTION
Frames: 12
Frame Time: 0.03333333333333333
0.0000 93.1000 0.0000 -51.7909 -18.6731 176.2193 -70.9860 -0.4382 88.0036 122.8024 68.5751 -39.4677 -7.5724 22.7015 1.8411 -163.3779 31.1222 -179.2593 -149.4482 70.8255 -175.5353 0.7467 -14.8103 -32.5855 -69.9102 50.5448 -66.7131 19.7966 17.8791 -49.6612 0.3415 -0.1946 -0.0334 -2.7248 5.9722 46.0262 -68.1429 -19.9532 82.0546 24.3550 -19.0806 55.0657 -0.3239 0.2214 0.2909 -49.4718 3.0735 90.7821 -14.3705 73.1049 0.2857 -9.4776 6.1136 1.7223 0.6841 -4.4088 5.3949 -7.7875 0.6537 80.2196 5.8792 68.1938 -7.0668 -10.1704 -26.0705 1.9952 3.6822 -2.1318 -29.1535 
0.0000 93.1000 0.0000 -53.1250 -13.7269 173.6713 -70.9740 -0.8204 88.0021 133.0313 68.4350 -47.6612 -8.5678 24.7237 1.1407 -168.1336 30.0078 -178.4348 -146.2273 69.1586 -180.3356 3.0067 -14.3405 -32.1223 -58.0760 57.0131 -74.6850 19.0811 21.6284 -43.1974 1.0373 -0.9716 0.0258 -1.2428 6.7430 43.7200 -71.4719 -20.3827 88.9628 28.8296 -17.3702 63.4647 0.0634 0.8849 1.4182 -38.8815 4.7285 93.8630 -65.1435 83.8700 50.1840 -6.7997 7.1146 0.0453 2.6840 -10.6750 5.4473 -16.6685 4.5100 82.7972 5.0597 65.2068 -4.9808 -11.0531 -28.1878 2.5501 5.3834 -5.4060 -28.3945 
0.0000 93.1000 0.0000 -52.1150 -9.9101 171.5483 -70.9884 -0.6237 87.9949 135.9975 69.7140 -51.6690 -10.1435 26.5523 1.4842 -166.5127 29.1394 -178.1615 -142.1603 67.8201 177.3897 0.8510 -14.1745 -31.5252 -49.3778 61.4485 -79.8209 23.5362 26.1781 -44.2703 -0.0841 -0.7413 0.6986 -2.0031 7.0024 39.9760 -75.2248 -24.6516 95.0914 33.8824 -11.2011 74.1948 0.3021 0.6391 0.6261 -25.1921 4.3990 93.6420 -138.9487 82.2888 125.9845 -5.3178 6.1827 0.6409 2.3927 -9.5756 7.8172 -26.8594 5.1165 83.4505 3.9340 58.0313 0.7148 -9.2776 -29.0347 1.2199 3.7333 -6.6257 -26.9604 
0.0000 93.1000 0.0000 -53.0202 -8.1978 169.3586 -70.9856 -0.5612 88.0024 137.0148 71.2753 -54.1026 -11.6278 28.0297 2.5116 -166.9699 29.6958 -178.1680 -139.9290 68.0047 173.6458 1.1581 -13.9033 -30.7247 -44.7671 64.9489 -78.7184 30.9951 28.1536 -51.9055 0.1953 -0.9875 0.5012 -1.5639 6.6077 37.2704 -75.8737 -28.2864 98.8434 39.7547 -5.6012 82.8126 0.5624 0.9076 1.1179 -15.7593 2.9984 93.2318 -135.3146 83.2865 124.7836 -3.9695 6.0008 0.2871 1.8217 -6.6368 9.1379 -38.6467 3.7715 84.7920 2.8023 48.9821 3.0875 -5.9075 -23.2127 0.5054 3.0505 -12.0210 -16.5317 
0.0000 93.1000 0.0000 -54.2370 -7.2652 168.7804 -70.9880 -0.0844 88.0090 135.1788 73.2176 -52.1723 -11.0901 28.8380 2.9358 -166.4087 29.9086 -179.0852 -142.1230 67.9890 173.5276 1.3312 -13.9357 -29.2653 -37.1327 68.9909 -80.6929 32.1810 24.3417 -56.9498 0.2516 -0.7565 0.1080 -1.4170 6.8111 35.8351 -75.9551 -31.1790 100.9239 41.4943 1.4200 90.8585 0.4157 0.5983 0.8605 -9.6978 0.9651 93.1870 -40.9029 83.3094 33.1738 -3.3211 7.2661 0.0757 1.0347 -5.8705 8.1526 -51.7167 1.6543 84.5559 1.9961 38.1518 6.0271 -2.5496 -7.3936 -0.2735 2.0868 -21.0435 0.5025 
0.0000 93.1000 0.0000 -53.1345 -5.2737 168.7883 -70.9896 0.3901 88.0105 132.0549 74.9209 -48.3700 -9.1999 29.3366 2.6312 -167.2604 29.8304 -179.2115 -143.1248 68.0106 173.5222 1.8872 -14.0655 -27.9708 -28.8762 70.8472 -85.7413 30.0719 18.8786 -59.8898 0.3048 -0.4788 -0.1015 -0.8183 7.0627 33.8574 -76.9260 -33.3073 100.1100 41.7707 6.8478 96.9474 0.2669 0.4406 0.6873 -7.2054 0.1388 93.9050 -10.2818 70.0686 1.7577 -6.0837 9.2493 0.3092 0.2793 -5.7661 7.9340 -59.2265 -1.2544 80.7820 0.8566 31.8125 15.9786 2.4544 11.5022 -1.8004 2.2521 -22.5711 3.2023 
0.0000 93.1000 0.0000 -54.0172 -2.8681 168.9680 -71.0013 0.1160 88.0026 132.0126 76.5177 -45.8032 -8.9507 30.1573 1.0029 -167.3282 30.0473 -177.1933 -148.0790 68.9879 178.7110 -1.0323 -13.9890 -28.1611 -25.0640 72.1065 -88.8334 28.2640 15.4558 -63.0976 -1.1720 -0.2877 0.4551 -2.3957 7.0888 33.0732 -78.0917 -33.9542 95.0720 40.6419 9.3957 100.9155 0.1636 0.3936 -0.1652 -9.1343 -0.8298 97.0215 -4.9469 51.1938 -13.1824 -12.1869 12.0444 3.6462 0.7908 -6.2048 8.9023 -64.9077 -1.6299 79.8842 -1.0625 31.0851 29.1316 5.2545 19.7652 -4.3823 1.8238 -12.6890 -18.2818 
0.0000 93.1000 0.0000 -53.8325 -0.9968 169.7530 -70.9775 -0.1340 88.0058 128.9148 77.8193 -40.7220 -7.5664 30.7586 -0.0477 -167.2957 29.1309 -176.9296 -151.3670 68.8115 -178.1462 1.5381 -12.9494 -28.1042 -30.9819 73.0998 -83.8093 27.7767 15.1620 -64.3071 -0.6139 -0.8281 0.1396 -1.1728 6.8076 34.0247 -81.7585 -32.0279 90.8456 37.4617 7.7782 99.9337 0.2726 0.9724 1.1325 -10.9774 -1.2304 99.5802 -3.1046 34.3120 -19.2988 -15.5094 13.2954 3.3097 2.6639 -8.8601 7.3810 -66.9554 1.7714 90.3763 2.0503 36.2590 10.0126 0.2909 17.6454 -2.5607 1.6231 -8.1544 -7.4505 
0.0000 93.1000 0.0000 -56.1786 -0.5835 172.1079 -70.9788 -0.2267 88.0061 132.0235 76.9404 -41.7751 -7.2708 29.9315 0.0480 -166.3607 28.7950 -175.7247 -153.4591 68.2512 -174.2986 0.6001 -12.3457 -28.7095 -40.0582 73.0859 -76.6447 28.1793 14.9421 -64.0260 -0.6091 -0.5889 0.3946 -1.6832 6.7181 35.2897 -85.1047 -28.9576 84.9219 33.0767 3.3079 93.8518 0.4261 0.8402 0.9178 -13.9919 -2.3905 98.3085 -5.6776 26.2566 -12.2390 -16.2632 12.8211 3.9306 2.2777 -9.7028 5.9335 -67.7363 2.6324 91.1157 2.0323 46.8008 2.9606 -1.7705 16.0964 -2.3081 0.9441 -7.4724 -7.6065 
0.0000 93.1000 0.0000 -58.7206 -0.5267 174.0924 -70.9795 -0.4004 87.9998 130.9053 75.0961 -40.3909 -6.4992 28.4498 0.8588 -163.3457 27.9317 -175.8656 -155.4538 67.9920 -171.4944 0.0332 -11.9651 -29.8736 -53.1454 70.8534 -67.7805 28.8025 15.7054 -63.0113 -0.3059 -0.2149 0.2747 -1.9227 6.1190 38.6613 -88.6760 -24.2763 78.8420 28.7991 -2.1185 86.8597 0.3095 0.3636 0.4347 -17.2253 -3.6489 104.1548 -5.3355 28.9687 -16.7700 -15.7691 11.6302 3.7993 1.4391 -7.1204 3.1342 -66.8074 2.0685 88.2594 4.0674 61.3079 -0.9368 -1.7270 14.6095 -1.6885 1.8811 -3.4738 -13.5267 
0.0000 93.1000 0.0000 -61.1293 -0.1575 173.9441 -70.9879 0.3216 87.9897 130.8635 73.4272 -40.0769 -6.5871 27.7920 0.8491 -160.3941 26.7966 -176.9708 -155.4945 66.9303 -168.3619 -2.0094 -12.6124 -33.0845 -63.6645 66.2250 -60.7930 29.8419 17.1161 -62.3423 0.3388 1.2982 -0.9174 -3.0040 5.9679 41.8815 -90.9980 -21.7710 75.9124 25.9343 -7.3384 75.9930 -1.1184 -1.6500 -1.5051 -21.0230 -4.5176 107.9157 -3.7337 39.3259 -24.0044 -9.6972 3.8287 2.4464 -0.1235 -2.2085 9.8272 -61.9686 0.0155 85.6268 12.2596 76.8216 -16.0039 -4.9036 10.7308 0.5801 0.4152 -3.2813 -10.3872 
0.0000 93.1000 0.0000 -62.9140 0.4830 173.0263 -70.9859 0.6327 87.9833 124.0034 73.0724 -35.8638 -4.7236 25.7099 1.2946 -158.3548 24.2767 178.7691 -151.5497 64.0229 -169.9622 -0.9185 -13.4105 -34.5309 -71.0215 58.7838 -58.6445 32.3749 19.0803 -61.8238 0.4750 1.0629 -0.4690 -2.5451 5.1793 44.2790 -93.1810 -22.2779 75.1895 24.9816 -13.7350 62.7369 -0.2893 -1.0642 -0.8842 -22.7072 -6.8537 107.1468 -6.1713 52.2128 -17.3577 -1.2894 -8.4816 -0.4049 -1.3639 -0.6879 5.2680 -52.3628 -2.1755 87.8575 138.6743 83.8791 -144.9415 -9.0388 9.3367 1.5569 2.1099 -9.1707 -11.8011 
